#N canvas 407 112 200 200 10;
#N canvas 352 262 420 300 META 0;
#X text 10 10 VERSION 0.1;
#X text 11 25 AUTHOR destessmargiassi@gmail.com;
#X text 13 41 NAME pd_ext_estessmargiassi;
#X restore 10 10 pd META;
