#N canvas 268 354 450 300 10;
#X obj 4 94 osc~ 440;
#X obj 15 165 dac~;
#X obj 92 169 writesf~;
#X msg 126 107 open test.wav \, start;
#X msg 263 107 stop;
#X msg 302 109 print;
#X connect 0 0 1 0;
#X connect 0 0 1 1;
#X connect 0 0 2 0;
#X connect 3 0 2 0;
#X connect 4 0 2 0;
#X connect 5 0 2 0;
