#N canvas 635 23 393 197 10;
#N canvas 0 22 450 300 (subpatch) 0;
#X array signal_display 1024 float 2;
#X coords 0 1 1023 -1 100 70 1;
#X restore 162 37 graph;
#X obj 26 58 / 1024;
#X obj 26 139 tabwrite signal_display;
#X msg 24 -1 1 0;
#X text 57 -2 start clock and initialize counter to 0;
#X obj 26 87 * 6.28319;
#X obj 26 113 sin;
#X text 57 113 calculate sine;
#N canvas 823 506 450 300 counter 0;
#X obj 148 130 float;
#X obj 196 130 + 1;
#X floatatom 148 154 5 0 0 0 - - -;
#X obj 147 70 tgl 15 0 empty empty empty 17 7 0 10 -262144 -1 -1 0
1;
#X obj 62 177 sel 1023;
#X msg 62 204 0;
#X obj 148 98 metro 5;
#X obj 146 43 unpack f f;
#X text 171 69 comment;
#X text 91 204 stop metro at end of count;
#X text 225 130 increment counter;
#X obj 146 17 inlet;
#X obj 149 244 outlet;
#X connect 0 0 1 0;
#X connect 0 0 2 0;
#X connect 1 0 0 1;
#X connect 2 0 4 0;
#X connect 2 0 12 0;
#X connect 3 0 6 0;
#X connect 4 0 5 0;
#X connect 5 0 3 0;
#X connect 6 0 0 0;
#X connect 7 0 3 0;
#X connect 7 1 0 1;
#X connect 11 0 7 0;
#X restore 25 31 pd counter;
#X connect 1 0 5 0;
#X connect 3 0 8 0;
#X connect 5 0 6 0;
#X connect 6 0 2 0;
#X connect 8 0 1 0;
#X connect 8 0 2 1;
