#N canvas 592 291 677 492 10;
#N canvas 0 22 450 300 (subpatch) 0;
#X array noiserec 65382 float 2;
#X coords 0 1 65382 -1 200 140 1;
#X restore 12 44 graph;
#X obj 272 153 noise~;
#X msg 231 154 bang;
#N canvas 0 22 450 300 (subpatch) 0;
#X array bedcatcher 44 float 0;
#X coords 0 1 43 -1 200 140 1;
#X restore 12 201 graph;
#X msg 248 294 paste bedcatcher;
#X obj 272 198 tabwrite~ noiserec;
#X obj 224 321 bed noiserec;
#X msg 223 243 fadein 1000;
#X obj 272 174 *~ 0.7;
#X text 229 130 1 record noise;
#X text 317 245 2 add fade-in;
#X text 336 266 3 cut out a small piece;
#X text 374 296 4 paste it to another array;
#X msg 455 169 \; pd dsp \$1;
#X obj 455 134 tgl 15 0 empty empty empty 17 7 0 10 -262144 -1 -1 1
1;
#X msg 236 266 cut 1500 1501;
#X msg 344 344 undo;
#X msg 278 365 cut 500 1200;
#X connect 1 0 8 0;
#X connect 2 0 5 0;
#X connect 4 0 6 0;
#X connect 7 0 6 0;
#X connect 8 0 5 0;
#X connect 14 0 13 0;
#X connect 15 0 6 0;
#X connect 16 0 6 0;
#X connect 17 0 6 0;
