{
	"patcher" : 	{
		"fileversion" : 1,
		"rect" : [ 115.0, 171.0, 640.0, 480.0 ],
		"bglocked" : 0,
		"defrect" : [ 115.0, 171.0, 640.0, 480.0 ],
		"openrect" : [ 0.0, 0.0, 0.0, 0.0 ],
		"openinpresentation" : 0,
		"default_fontsize" : 12.0,
		"default_fontface" : 0,
		"default_fontname" : "Arial",
		"gridonopen" : 0,
		"gridsize" : [ 15.0, 15.0 ],
		"gridsnaponopen" : 0,
		"toolbarvisible" : 1,
		"boxanimatetime" : 200,
		"imprint" : 0,
		"enablehscroll" : 1,
		"enablevscroll" : 1,
		"devicewidth" : 0.0,
		"boxes" : [ 			{
				"box" : 				{
					"maxclass" : "message",
					"text" : "bufname nonexistent",
					"outlettype" : [ "" ],
					"patching_rect" : [ 165.0, 105.0, 122.0, 18.0 ],
					"fontname" : "Arial",
					"id" : "obj-10",
					"numinlets" : 2,
					"fontsize" : 12.0,
					"numoutlets" : 1
				}

			}
, 			{
				"box" : 				{
					"maxclass" : "message",
					"text" : "bufname empty",
					"outlettype" : [ "" ],
					"patching_rect" : [ 105.0, 75.0, 93.0, 18.0 ],
					"fontname" : "Arial",
					"id" : "obj-8",
					"numinlets" : 2,
					"fontsize" : 12.0,
					"numoutlets" : 1
				}

			}
, 			{
				"box" : 				{
					"maxclass" : "message",
					"text" : "bufname full",
					"outlettype" : [ "" ],
					"patching_rect" : [ 75.0, 45.0, 76.0, 18.0 ],
					"fontname" : "Arial",
					"id" : "obj-7",
					"numinlets" : 2,
					"fontsize" : 12.0,
					"numoutlets" : 1
				}

			}
, 			{
				"box" : 				{
					"maxclass" : "message",
					"text" : "info",
					"outlettype" : [ "" ],
					"patching_rect" : [ 45.0, 75.0, 32.5, 18.0 ],
					"fontname" : "Arial",
					"id" : "obj-5",
					"numinlets" : 2,
					"fontsize" : 12.0,
					"numoutlets" : 1
				}

			}
, 			{
				"box" : 				{
					"maxclass" : "newobj",
					"text" : "bed empty",
					"patching_rect" : [ 75.0, 135.0, 67.0, 20.0 ],
					"fontname" : "Arial",
					"id" : "obj-3",
					"numinlets" : 1,
					"fontsize" : 12.0,
					"numoutlets" : 0
				}

			}
, 			{
				"box" : 				{
					"maxclass" : "newobj",
					"text" : "buffer~ full 1000",
					"outlettype" : [ "float", "bang" ],
					"patching_rect" : [ 300.0, 135.0, 97.0, 20.0 ],
					"fontname" : "Arial",
					"id" : "obj-2",
					"numinlets" : 1,
					"fontsize" : 12.0,
					"numoutlets" : 2
				}

			}
, 			{
				"box" : 				{
					"maxclass" : "newobj",
					"text" : "buffer~ empty",
					"outlettype" : [ "float", "bang" ],
					"patching_rect" : [ 300.0, 105.0, 84.0, 20.0 ],
					"fontname" : "Arial",
					"id" : "obj-1",
					"numinlets" : 1,
					"fontsize" : 12.0,
					"numoutlets" : 2
				}

			}
 ],
		"lines" : [ 			{
				"patchline" : 				{
					"source" : [ "obj-5", 0 ],
					"destination" : [ "obj-3", 0 ],
					"hidden" : 0,
					"midpoints" : [ 54.5, 113.5, 84.5, 113.5 ]
				}

			}
, 			{
				"patchline" : 				{
					"source" : [ "obj-7", 0 ],
					"destination" : [ "obj-3", 0 ],
					"hidden" : 0,
					"midpoints" : [  ]
				}

			}
, 			{
				"patchline" : 				{
					"source" : [ "obj-8", 0 ],
					"destination" : [ "obj-3", 0 ],
					"hidden" : 0,
					"midpoints" : [ 114.5, 113.5, 84.5, 113.5 ]
				}

			}
, 			{
				"patchline" : 				{
					"source" : [ "obj-10", 0 ],
					"destination" : [ "obj-3", 0 ],
					"hidden" : 0,
					"midpoints" : [ 174.5, 128.5, 84.5, 128.5 ]
				}

			}
 ]
	}

}
