{
	"patcher" : 	{
		"fileversion" : 1,
		"rect" : [ 620.0, 334.0, 640.0, 480.0 ],
		"bglocked" : 0,
		"defrect" : [ 620.0, 334.0, 640.0, 480.0 ],
		"openrect" : [ 0.0, 0.0, 0.0, 0.0 ],
		"openinpresentation" : 0,
		"default_fontsize" : 12.0,
		"default_fontface" : 0,
		"default_fontname" : "Arial",
		"gridonopen" : 0,
		"gridsize" : [ 15.0, 15.0 ],
		"gridsnaponopen" : 0,
		"toolbarvisible" : 1,
		"boxanimatetime" : 200,
		"imprint" : 0,
		"enablehscroll" : 1,
		"enablevscroll" : 1,
		"devicewidth" : 0.0,
		"boxes" : [ 			{
				"box" : 				{
					"maxclass" : "ezdac~",
					"numinlets" : 2,
					"patching_rect" : [ 45.0, 255.0, 45.0, 45.0 ],
					"numoutlets" : 0,
					"id" : "obj-7"
				}

			}
, 			{
				"box" : 				{
					"maxclass" : "newobj",
					"text" : "*~ 0.05",
					"fontname" : "Arial",
					"numinlets" : 2,
					"patching_rect" : [ 45.0, 195.0, 49.0, 20.0 ],
					"numoutlets" : 1,
					"id" : "obj-6",
					"fontsize" : 12.0,
					"outlettype" : [ "signal" ]
				}

			}
, 			{
				"box" : 				{
					"maxclass" : "newobj",
					"text" : "oscil~ @frequency 550.",
					"fontname" : "Arial",
					"numinlets" : 1,
					"patching_rect" : [ 45.0, 150.0, 136.0, 20.0 ],
					"numoutlets" : 1,
					"id" : "obj-5",
					"fontsize" : 12.0,
					"outlettype" : [ "signal" ]
				}

			}
, 			{
				"box" : 				{
					"maxclass" : "message",
					"text" : "frequency $1",
					"fontname" : "Arial",
					"numinlets" : 2,
					"patching_rect" : [ 45.0, 105.0, 80.0, 18.0 ],
					"numoutlets" : 1,
					"id" : "obj-4",
					"fontsize" : 12.0,
					"outlettype" : [ "" ]
				}

			}
, 			{
				"box" : 				{
					"maxclass" : "flonum",
					"fontname" : "Arial",
					"numinlets" : 1,
					"patching_rect" : [ 45.0, 60.0, 50.0, 20.0 ],
					"numoutlets" : 2,
					"id" : "obj-2",
					"fontsize" : 12.0,
					"outlettype" : [ "float", "bang" ]
				}

			}
 ],
		"lines" : [ 			{
				"patchline" : 				{
					"source" : [ "obj-6", 0 ],
					"destination" : [ "obj-7", 1 ],
					"hidden" : 0,
					"midpoints" : [ 54.5, 234.5, 80.5, 234.5 ]
				}

			}
, 			{
				"patchline" : 				{
					"source" : [ "obj-6", 0 ],
					"destination" : [ "obj-7", 0 ],
					"hidden" : 0,
					"midpoints" : [  ]
				}

			}
, 			{
				"patchline" : 				{
					"source" : [ "obj-5", 0 ],
					"destination" : [ "obj-6", 0 ],
					"hidden" : 0,
					"midpoints" : [  ]
				}

			}
, 			{
				"patchline" : 				{
					"source" : [ "obj-4", 0 ],
					"destination" : [ "obj-5", 0 ],
					"hidden" : 0,
					"midpoints" : [  ]
				}

			}
, 			{
				"patchline" : 				{
					"source" : [ "obj-2", 0 ],
					"destination" : [ "obj-4", 0 ],
					"hidden" : 0,
					"midpoints" : [  ]
				}

			}
 ]
	}

}
