#N canvas 721 377 291 214 10;
#X obj 39 88 moogvcf~;
#X obj 39 41 noise~;
#X obj 39 133 *~ 0.03;
#X floatatom 120 41 5 60 3000 2 frequency - -;
#X floatatom 194 41 5 0 0.99 2 resonance - -;
#X obj 39 171 dac~;
#X msg 125 172 \; pd dsp \$1;
#X obj 125 142 tgl 15 0 empty empty empty 17 7 0 10 -262144 -1 -1 1
1;
#X floatatom 78 109 5 0 0 0 - - -;
#N canvas 0 0 450 300 init 0;
#X obj 188 89 loadbang;
#X msg 188 113 700 0.98;
#X obj 188 137 unpack f f;
#X obj 188 168 outlet;
#X obj 240 168 outlet;
#X connect 0 0 1 0;
#X connect 1 0 2 0;
#X connect 2 0 3 0;
#X connect 2 1 4 0;
#X restore 105 5 pd init;
#X text 118 108 gain;
#X connect 0 0 2 0;
#X connect 1 0 0 0;
#X connect 2 0 5 0;
#X connect 2 0 5 1;
#X connect 3 0 0 1;
#X connect 4 0 0 2;
#X connect 7 0 6 0;
#X connect 8 0 2 1;
#X connect 9 0 3 0;
#X connect 9 1 4 0;
