#N canvas 251 347 735 531 10;
#X obj 137 230 retroseq~;
#X obj 137 350 oscil~ 410 1024 square 12;
#X obj 119 413 *~ 0.1;
#X obj 119 444 dac~;
#X obj 167 305 bng 15 250 50 0 empty empty empty 17 7 0 10 -262144
-1 -1;
#X msg 423 16 freqlist 543 188 149 445 657;
#X msg 138 17 shuffle;
#X obj 119 384 *~;
#X obj 48 345 line~;
#X obj 48 318 r linedrive;
#X msg 74 71 tempo \$1;
#X floatatom 74 45 5 0 0 0 - - -;
#X obj 487 98 tgl 15 0 empty empty empty 17 7 0 10 -262144 -1 -1 0
1;
#X obj 69 151 bng 15 250 50 0 empty empty empty 17 7 0 10 -262144 -1
-1;
#X msg 425 57 adsr 200 50 300 1000;
#X msg 488 121 manual_override \$1;
#X obj 152 327 s retroseq_envelope;
#X msg 221 427 230 417 500;
#X obj 197 259 s retroseq_shuffled_durs;
#X obj 220 386 r retroseq_shuffled_durs;
#N canvas 970 116 581 443 unpack-envelope 0;
#X obj 22 310 pack f f;
#X obj 195 309 pack f f;
#X obj 309 311 pack f f;
#X floatatom 346 169 5 0 0 0 - - -;
#X obj 23 82 unpack f f f f f f f f f f f f f;
#X obj 423 312 pack f f;
#X floatatom 463 222 5 0 0 0 - - -;
#X obj 463 181 +;
#X obj 346 145 +;
#X floatatom 211 111 5 0 0 0 - - -;
#X msg 23 60 \$3 \$4 \$1 \$2 \$5 \$6 \$7 \$8 \$9 \$10 \$4 \$6 \$8;
#X obj 107 309 pack f f;
#X obj 22 36 r retroseq_envelope;
#X obj 21 330 s linedrive;
#X obj 106 329 s linedrive;
#X obj 194 329 s linedrive;
#X obj 308 331 s linedrive;
#X obj 422 332 s linedrive;
#X text 181 27 comment;
#X text 21 6 The list is rearranged so that the delay times are computed
before the envelope data arrives for packing.;
#X obj 195 288 pipe;
#X obj 248 288 pipe;
#X obj 309 290 pipe;
#X obj 362 290 pipe;
#X obj 423 291 pipe;
#X obj 476 291 pipe;
#X connect 0 0 13 0;
#X connect 1 0 15 0;
#X connect 2 0 16 0;
#X connect 3 0 7 0;
#X connect 3 0 22 1;
#X connect 3 0 23 1;
#X connect 4 0 0 0;
#X connect 4 1 0 1;
#X connect 4 2 11 0;
#X connect 4 3 11 1;
#X connect 4 4 20 0;
#X connect 4 5 21 0;
#X connect 4 6 22 0;
#X connect 4 7 23 0;
#X connect 4 8 24 0;
#X connect 4 9 25 0;
#X connect 4 10 9 0;
#X connect 4 11 8 1;
#X connect 4 12 7 1;
#X connect 5 0 17 0;
#X connect 6 0 24 1;
#X connect 6 0 25 1;
#X connect 7 0 6 0;
#X connect 8 0 3 0;
#X connect 9 0 8 0;
#X connect 9 0 20 1;
#X connect 9 0 21 1;
#X connect 10 0 4 0;
#X connect 11 0 14 0;
#X connect 12 0 10 0;
#X connect 20 0 1 0;
#X connect 21 0 1 1;
#X connect 22 0 2 0;
#X connect 23 0 2 1;
#X connect 24 0 5 0;
#X connect 25 0 5 1;
#X restore 433 296 pd unpack-envelope;
#X floatatom 158 384 5 0 0 0 - - -;
#X msg 403 428 149 657 543 445 188;
#X obj 402 387 r retroseq_shuffled_freqs;
#X obj 182 282 s retroseq_shuffled_freqs;
#X msg 425 79 adsr 10 20 100 100;
#X msg 489 170 elastic_sustain \$1;
#X obj 489 142 tgl 15 0 empty empty empty 17 7 0 10 -262144 -1 -1 0
1;
#X msg 424 36 durlist 500 230 417;
#X msg 220 407 set \$1 \$2 \$3;
#X msg 402 408 set \$1 \$2 \$3 \$4 \$5;
#X floatatom 489 196 5 0 0 0 - - -;
#X msg 489 214 sustain_amplitude \$1;
#X text 187 308 sequence start indicator;
#X msg 588 413 \; pd dsp \$1;
#X obj 588 386 tgl 15 0 empty empty empty 17 7 0 10 -262144 -1 -1 0
1;
#X msg 213 17 shuffle_freqs;
#X msg 323 17 shuffle_durs;
#X text 89 151 manual trigger;
#X obj 622 64 loadbang;
#X text 114 461 retroseq~ is a sample accurate sequencer combining
a frequency and a duration series;
#X text 393 258;
#X connect 0 0 1 0;
#X connect 0 1 16 0;
#X connect 0 2 4 0;
#X connect 0 3 24 0;
#X connect 0 4 18 0;
#X connect 1 0 7 1;
#X connect 2 0 3 0;
#X connect 2 0 3 1;
#X connect 5 0 0 0;
#X connect 6 0 0 0;
#X connect 7 0 2 0;
#X connect 8 0 7 0;
#X connect 9 0 8 0;
#X connect 10 0 0 0;
#X connect 11 0 10 0;
#X connect 12 0 15 0;
#X connect 13 0 0 0;
#X connect 14 0 0 0;
#X connect 15 0 0 0;
#X connect 19 0 29 0;
#X connect 21 0 2 1;
#X connect 23 0 30 0;
#X connect 25 0 0 0;
#X connect 26 0 0 0;
#X connect 27 0 26 0;
#X connect 28 0 0 0;
#X connect 29 0 17 0;
#X connect 30 0 22 0;
#X connect 31 0 32 0;
#X connect 32 0 0 0;
#X connect 35 0 34 0;
#X connect 36 0 0 0;
#X connect 37 0 0 0;
#X connect 39 0 5 0;
#X connect 39 0 28 0;
#X connect 39 0 14 0;
