#N canvas 400 22 424 334 12;
#X obj 8 209 *~ 0.1;
#X obj 8 240 dac~;
#X msg 10 286 \; pd dsp \$1;
#X obj 10 264 tgl 15 0 empty empty empty 17 7 0 10 -262144 -1 -1 1
1;
#X floatatom 150 106 5 0 0 0 - - -;
#X floatatom 151 128 5 0 0 0 - - -;
#X floatatom 53 189 5 0 0 0 - - -;
#X obj 8 81 tabplay~ soundfile-playback;
#X obj 144 6 bng 30 250 50 0 empty empty empty 17 7 0 10 -204786 -1
-1;
#X msg 47 135 sample;
#X floatatom 105 190 5 0 0 0 - - -;
#X msg 8 57 bang;
#X obj 144 39 t b b;
#X text 180 14 play soundfile and sample it;
#X text 197 103 speed;
#X text 198 126 position;
#X obj 277 113 hsl 128 15 0 1 0 0 empty empty empty -2 -8 0 10 -262144
-1 -1 0 1;
#N canvas 0 22 450 300 (subpatch) 0;
#X array soundfile-playback 651162 float 2;
#X coords 0 1 651162 -1 200 100 1;
#X restore 181 177 graph;
#X obj 277 91 hsl 128 15 0 2 0 0 empty empty empty -2 -8 0 10 -262144
-1 -1 0 1;
#X obj 80 208 vsl 15 40 0 1 0 0 empty empty empty 0 -9 0 10 -262144
-1 -1 2800 1;
#X msg 274 61 0.25;
#N canvas 314 258 777 455 scrubber-fft 0;
#X obj 36 85 inlet~;
#X obj 36 137 rfft~;
#X obj 36 209 rifft~;
#X obj 36 297 outlet~;
#X obj 192 275 loadbang;
#X obj 312 66 inlet;
#X obj 333 90 inlet;
#X obj 553 141 - 1;
#X obj 516 167 *;
#X obj 516 194 / 2;
#X obj 516 267 /;
#X floatatom 195 208 7 0 0 0 - - -;
#X obj 516 218 t b f;
#X msg 516 243 1;
#X obj 516 292 s \$0-normfactor;
#X obj 196 187 r \$0-normfactor;
#X obj 36 241 *~ 0;
#X obj 36 114 windowvec~;
#X obj 36 274 windowvec~;
#X text 82 138 "real" FFT;
#X msg 468 320 set \$1 \$2;
#X text 249 301 set FFT size and overlap;
#X obj 192 326 unpack f f;
#X obj 192 348 s \$0-fft-size;
#X obj 516 86 r \$0-fft-size;
#X obj 305 348 s \$0-overlap-factor;
#X obj 553 112 r \$0-overlap-factor;
#X obj 36 171 scrubber~ 5000;
#X text 361 65 increment;
#X text 380 91 position;
#X obj 289 40 inlet;
#X text 344 39 initiate sampling;
#X obj 185 379 snapshot~;
#X obj 112 402 metro 50;
#X msg 112 382 1;
#X obj 112 361 loadbang;
#X obj 185 402 outlet;
#X obj 20 36 r \$0-overlap-factor;
#X msg 20 63 overlap \$1;
#X obj 468 347 block~;
#X msg 192 302 2048 4;
#X text 74 240 comment;
#X connect 0 0 17 0;
#X connect 1 0 27 0;
#X connect 1 1 27 1;
#X connect 2 0 16 0;
#X connect 4 0 40 0;
#X connect 5 0 27 2;
#X connect 6 0 27 3;
#X connect 7 0 8 1;
#X connect 8 0 9 0;
#X connect 9 0 12 0;
#X connect 10 0 14 0;
#X connect 11 0 16 1;
#X connect 12 0 13 0;
#X connect 12 1 10 1;
#X connect 13 0 10 0;
#X connect 15 0 11 0;
#X connect 16 0 18 0;
#X connect 17 0 1 0;
#X connect 18 0 3 0;
#X connect 20 0 39 0;
#X connect 22 0 23 0;
#X connect 22 1 25 0;
#X connect 24 0 8 0;
#X connect 26 0 7 0;
#X connect 27 0 2 0;
#X connect 27 1 2 1;
#X connect 27 2 32 0;
#X connect 30 0 27 0;
#X connect 32 0 36 0;
#X connect 33 0 32 0;
#X connect 34 0 33 0;
#X connect 35 0 34 0;
#X connect 37 0 38 0;
#X connect 38 0 27 0;
#X connect 40 0 22 0;
#X connect 40 0 20 0;
#X restore 8 165 pd scrubber-fft;
#N canvas 0 22 450 300 load-sound 0;
#X obj 62 207 soundfiler;
#X msg 62 186 read -resize \$1 soundfile-playback;
#X obj 62 165 openpanel;
#X msg 62 141 bang;
#X obj 62 109 inlet;
#X connect 1 0 0 0;
#X connect 2 0 1 0;
#X connect 3 0 2 0;
#X connect 4 0 3 0;
#X restore 114 298 pd load-sound;
#X msg 114 274 bang;
#X msg 4 27 resize 30000;
#X connect 0 0 1 0;
#X connect 0 0 1 1;
#X connect 3 0 2 0;
#X connect 4 0 21 2;
#X connect 5 0 21 3;
#X connect 6 0 0 1;
#X connect 7 0 21 0;
#X connect 8 0 12 0;
#X connect 9 0 21 1;
#X connect 11 0 7 0;
#X connect 12 0 11 0;
#X connect 12 1 9 0;
#X connect 16 0 5 0;
#X connect 18 0 4 0;
#X connect 19 0 6 0;
#X connect 20 0 18 0;
#X connect 21 0 0 0;
#X connect 21 1 10 0;
#X connect 23 0 22 0;
#X connect 24 0 21 1;
