#N canvas 589 362 452 302 12;
#X obj 27 210 dac~;
#X msg 92 198 \; pd dsp \$1;
#X obj 92 175 tgl 15 0 empty empty empty 17 7 0 10 -262144 -1 -1 0
1;
#X floatatom 186 107 5 0 0 0 - - -;
#X obj 27 176 *~ 0.1;
#X obj 27 139 vdelay~ 13 1 0.3;
#X obj 126 78 *~ 5.95;
#X obj 126 100 +~ 6;
#X obj 126 56 osc~ 0.01;
#X floatatom 27 45 5 0 0 0 - - -;
#X floatatom 126 33 5 0 0 0 - - -;
#X text 172 32 flange speed;
#X text 228 106 feedback;
#X obj 27 95 -~ 0.5;
#X obj 309 38 loadbang;
#X msg 309 61 0.7;
#X obj 27 69 phasor~ 89;
#X connect 2 0 1 0;
#X connect 3 0 5 2;
#X connect 4 0 0 0;
#X connect 4 0 0 1;
#X connect 5 0 4 0;
#X connect 6 0 7 0;
#X connect 7 0 5 1;
#X connect 8 0 6 0;
#X connect 9 0 16 0;
#X connect 10 0 8 0;
#X connect 13 0 5 0;
#X connect 14 0 15 0;
#X connect 15 0 3 0;
#X connect 16 0 13 0;
