#N canvas 611 301 669 548 10;
#N canvas 0 22 450 300 (subpatch) 0;
#X array sinewave 44100 float 2;
#X coords 0 1 44100 -1 100 70 1;
#X restore -16 19 graph;
#X obj -14 150 *~ 0.5;
#N canvas 0 22 450 300 (subpatch) 0;
#X array sine_plus_DC 41000 float 2;
#X coords 0 1 41000 -1 100 70 1;
#X restore 244 23 graph;
#X obj -14 124 osc~ 1;
#X obj 129 194 +~;
#X obj 147 106 sig~ 0.5;
#X obj -13 242 bng 15 250 50 0 empty empty empty 17 7 0 10 -262144
-1 -1;
#X obj 30 283 s osc-phase;
#X obj 25 101 r osc-phase;
#X obj 192 289 s osc-phase;
#X obj -13 264 t b b;
#X obj 148 246 bng 15 250 50 0 empty empty empty 17 7 0 10 -262144
-1 -1;
#X obj 148 268 t b b;
#N canvas 0 22 450 300 (subpatch) 0;
#X array dc 44100 float 2;
#X coords 0 1 44099 -1 100 70 1;
#X restore 117 22 graph;
#X text 36 148 comment;
#X obj 163 153 tabwrite~ dc;
#X obj 191 127 bng 15 250 50 0 empty empty empty 17 7 0 10 -262144
-1 -1;
#X text 92 52 +;
#X text 223 55 =;
#X text 209 127 record DC signal;
#X msg 31 264 -0.25;
#X msg 192 267 -0.25;
#X text 12 243 record sinewave;
#X text 170 245 record sinewave + DC offset;
#X obj 129 215 tabwrite~ sine_plus_DC;
#X obj -14 215 tabwrite~ sinewave;
#X obj -13 303 s rec-sine;
#X obj 148 309 s rec-sine-dc;
#X obj 173 193 r rec-sine-dc;
#X obj -4 190 r rec-sine;
#X text 190 200;
#X connect 1 0 4 0;
#X connect 1 0 25 0;
#X connect 3 0 1 0;
#X connect 4 0 24 0;
#X connect 5 0 4 1;
#X connect 5 0 15 0;
#X connect 6 0 10 0;
#X connect 8 0 3 1;
#X connect 10 0 26 0;
#X connect 10 1 20 0;
#X connect 11 0 12 0;
#X connect 12 0 27 0;
#X connect 12 1 21 0;
#X connect 16 0 15 0;
#X connect 20 0 7 0;
#X connect 21 0 9 0;
#X connect 28 0 24 0;
#X connect 29 0 25 0;
