#N canvas 72 82 836 525 10;
#X floatatom 110 127 5 0 0 1 freq - -;
#X obj 110 305 dac~;
#X msg 180 292 \; pd dsp \$1;
#X obj 180 265 tgl 15 0 empty empty empty 0 -6 0 8 -262144 -1 -1 0
1;
#X obj 110 214 oscil~ 220 8192 square 16;
#X floatatom 309 230 5 0 0 0 - - -;
#X obj 312 211 hsl 128 15 0 0.2 0 0 empty empty gain -2 -6 0 8 -261836
-1 -1 0 1;
#X text 384 4 waveform interpolation;
#X obj 110 88 loadbang;
#X msg 110 109 220;
#X msg 271 46 square;
#X msg 272 85 triangle;
#X msg 271 27 sine;
#X msg 271 66 sawtooth;
#X msg 272 103 pulse;
#X msg 343 162 fadetime \$1;
#X msg 343 127 50;
#X msg 378 127 500;
#X msg 414 127 5000;
#X msg 397 86 fadetype \$1;
#X msg 421 19 0;
#X msg 422 39 1;
#X msg 423 62 2;
#X text 449 19 no fade;
#X text 452 39 linear fade;
#X text 454 62 power fade;
#X obj 124 186 r oscil-help-msgs;
#X obj 206 126 s oscil-help-msgs;
#X obj 343 185 s oscil-help-msgs;
#X obj 397 106 s oscil-help-msgs;
#X obj 110 243 *~ 0.01;
#X msg 385 252 0 0 0.1 0 0.25 0.5 0 0 0.3 0.1 0.05;
#X msg 400 278 0 0.1 0.3 0 0 0 0 0.5 0 0 0.7 0 0 0.2 0.1;
#X msg 410 300 0 0.1 0.1 1 1 0.1 0.1;
#X msg 420 322 0 1 0.5 0.25 0.125 0.0625;
#X text 356 233 list relative weights of harmonics \, starting with
DC;
#X msg 424 344 0 1;
#X obj 385 376 s oscil-help-msgs;
#X text 450 345 this is a sine wave;
#X connect 0 0 4 0;
#X connect 3 0 2 0;
#X connect 4 0 30 0;
#X connect 5 0 30 1;
#X connect 6 0 5 0;
#X connect 8 0 9 0;
#X connect 9 0 0 0;
#X connect 10 0 27 0;
#X connect 11 0 27 0;
#X connect 12 0 27 0;
#X connect 13 0 27 0;
#X connect 14 0 27 0;
#X connect 15 0 28 0;
#X connect 16 0 15 0;
#X connect 17 0 15 0;
#X connect 18 0 15 0;
#X connect 19 0 29 0;
#X connect 20 0 19 0;
#X connect 21 0 19 0;
#X connect 22 0 19 0;
#X connect 26 0 4 0;
#X connect 30 0 1 0;
#X connect 30 0 1 1;
#X connect 31 0 37 0;
#X connect 32 0 37 0;
#X connect 33 0 37 0;
#X connect 34 0 37 0;
#X connect 36 0 37 0;
