#N canvas 310 314 1232 409 10;
#X declare -lib slambilib;
#X obj 59 67 import slambilib;
#X obj 379 104 slambien~ 1;
#X obj 379 59 osc~ 440;
#X obj 385 199 dac~;
#X obj 442 13 osc~ 1;
#X obj 442 68 *~ 90;
#X floatatom 514 41 5 0 0 0 - - -;
#X obj 367 135 slambide~ y 1 90 180;
#X connect 1 0 7 0;
#X connect 1 1 7 1;
#X connect 1 2 7 2;
#X connect 2 0 1 0;
#X connect 4 0 5 0;
#X connect 5 0 1 1;
#X connect 6 0 5 1;
#X connect 7 0 3 0;
#X connect 7 1 3 1;
