#N canvas 361 270 450 300 10;
#X declare -lib carith;
#X obj 53 20 declare -lib carith;
#X floatatom 53 96 5 0 0 0 - - -;
#X floatatom 140 96 5 0 0 0 - - -;
#X obj 53 77 i+ ------------;
#X msg 53 58 2.1;
#X msg 82 58 4.2;
#X msg 111 58 8.3;
#X msg 140 58 1.4;
#X floatatom 183 96 5 0 0 0 - - -;
#X floatatom 270 96 5 0 0 0 - - -;
#X msg 183 58 2.1;
#X msg 212 58 4.2;
#X msg 241 58 8.3;
#X msg 270 58 1.4;
#X obj 183 77 i- ------------;
#X floatatom 53 166 5 0 0 0 - - -;
#X floatatom 140 166 5 0 0 0 - - -;
#X msg 53 128 2.1;
#X msg 82 128 4.2;
#X msg 111 128 8.3;
#X msg 140 128 1.4;
#X floatatom 183 166 5 0 0 0 - - -;
#X floatatom 270 166 5 0 0 0 - - -;
#X msg 183 128 2.1;
#X msg 212 128 4.2;
#X msg 241 128 8.3;
#X msg 270 128 1.4;
#X obj 53 147 i* ------------;
#X obj 183 147 i/ ------------;
#X connect 3 0 1 0;
#X connect 3 1 2 0;
#X connect 4 0 3 0;
#X connect 5 0 3 1;
#X connect 6 0 3 2;
#X connect 7 0 3 3;
#X connect 10 0 14 0;
#X connect 11 0 14 1;
#X connect 12 0 14 2;
#X connect 13 0 14 3;
#X connect 14 0 8 0;
#X connect 14 1 9 0;
#X connect 17 0 27 0;
#X connect 18 0 27 1;
#X connect 19 0 27 2;
#X connect 20 0 27 3;
#X connect 23 0 28 0;
#X connect 24 0 28 1;
#X connect 25 0 28 2;
#X connect 26 0 28 3;
#X connect 27 0 15 0;
#X connect 27 1 16 0;
#X connect 28 0 21 0;
#X connect 28 1 22 0;
