#N canvas 724 180 439 375 10;
#X declare -lib convlexlib;
#X floatatom 20 57 5 0 0 0 - - -;
#X obj 20 75 sig~;
#X floatatom 60 57 5 0 0 0 - - -;
#X obj 60 75 sig~;
#X floatatom 100 57 5 0 0 0 - - -;
#X obj 100 75 sig~;
#X floatatom 140 57 5 0 0 0 - - -;
#X obj 140 75 sig~;
#X obj 20 18 declare -lib convlexlib;
#X text 18 2 Import statement;
#X obj 20 94 s~ r1;
#X obj 60 94 s~ i1;
#X obj 100 94 s~ r2;
#X obj 140 94 s~ i2;
#X obj 20 150 r~ r1;
#X obj 57 150 r~ i1;
#X obj 94 150 r~ r2;
#X obj 131 150 r~ i2;
#X obj 20 169 i+~ - - - - - - - -;
#X obj 20 188 print~ Add_r;
#X obj 131 188 print~ Add_i;
#X text 18 133 Complex Addition;
#X obj 3 173 bng 15 250 50 0 empty empty empty 17 7 0 10 -262144 -1
-1;
#X obj 239 150 r~ r1;
#X obj 276 150 r~ i1;
#X obj 313 150 r~ r2;
#X obj 350 150 r~ i2;
#X obj 222 173 bng 15 250 50 0 empty empty empty 17 7 0 10 -262144
-1 -1;
#X text 237 133 Complex Subtraction;
#X obj 239 169 i-~ - - - - - - - -;
#X obj 239 188 print~ Sub_r;
#X obj 350 188 print~ Sub_i;
#X obj 20 240 r~ r1;
#X obj 57 240 r~ i1;
#X obj 94 240 r~ r2;
#X obj 131 240 r~ i2;
#X obj 3 263 bng 15 250 50 0 empty empty empty 17 7 0 10 -262144 -1
-1;
#X obj 239 240 r~ r1;
#X obj 276 240 r~ i1;
#X obj 313 240 r~ r2;
#X obj 350 240 r~ i2;
#X obj 222 263 bng 15 250 50 0 empty empty empty 17 7 0 10 -262144
-1 -1;
#X text 18 223 Complex Multiplication;
#X text 237 223 Complex Division;
#X obj 20 259 i*~ - - - - - - - -;
#X obj 239 259 i/~ - - - - - - - -;
#X obj 20 278 print~ Mult_r;
#X obj 131 278 print~ Mult_i;
#X obj 239 278 print~ Div_r;
#X obj 350 278 print~ Div_i;
#X obj 20 348 i+;
#X obj 44 348 i-;
#X obj 68 348 i*;
#X obj 92 348 i/;
#X text 19 328 Also comes in message rate!;
#X connect 0 0 1 0;
#X connect 1 0 10 0;
#X connect 2 0 3 0;
#X connect 3 0 11 0;
#X connect 4 0 5 0;
#X connect 5 0 12 0;
#X connect 6 0 7 0;
#X connect 7 0 13 0;
#X connect 14 0 18 0;
#X connect 15 0 18 1;
#X connect 16 0 18 2;
#X connect 17 0 18 3;
#X connect 18 0 19 0;
#X connect 18 1 20 0;
#X connect 22 0 19 0;
#X connect 22 0 20 0;
#X connect 23 0 29 0;
#X connect 24 0 29 1;
#X connect 25 0 29 2;
#X connect 26 0 29 3;
#X connect 27 0 30 0;
#X connect 27 0 31 0;
#X connect 29 0 30 0;
#X connect 29 1 31 0;
#X connect 32 0 44 0;
#X connect 33 0 44 1;
#X connect 34 0 44 2;
#X connect 35 0 44 3;
#X connect 36 0 46 0;
#X connect 36 0 47 0;
#X connect 37 0 45 0;
#X connect 38 0 45 1;
#X connect 39 0 45 2;
#X connect 40 0 45 3;
#X connect 41 0 48 0;
#X connect 41 0 49 0;
#X connect 44 0 46 0;
#X connect 44 1 47 0;
#X connect 45 0 48 0;
#X connect 45 1 49 0;
