#N canvas 608 401 319 203 10;
#X text 19 168 (c) David Estes-Smargiassi 2017;
#X text 9 7 prints "Hello world!" when it receives a bang.;
#X text 7 21 cannot handle other input;
#X obj 179 44 cnv 15 100 60 empty empty empty 20 12 0 14 -261234 -66577
0;
#X obj 64 47 cnv 15 100 60 empty empty empty 20 12 0 14 -204786 -66577
0;
#X obj 139 139 helloworld;
#X obj 74 76 bng 15 250 50 0 empty empty empty 17 7 0 10 -262144 -1
-1;
#X msg 187 74 60;
#X msg 105 74 bang;
#X text 70 58 yes;
#X text 187 55 no;
#X text 104 56 yes;
#X floatatom 217 76 5 0 0 0 - - -, f 5;
#X text 218 55 no;
#X obj 255 75 tgl 15 0 empty empty empty 17 7 0 10 -262144 -1 -1 0
1;
#X text 253 55 no;
#X connect 6 0 5 0;
#X connect 7 0 5 0;
#X connect 8 0 5 0;
#X connect 12 0 5 0;
#X connect 14 0 5 0;
