#N canvas 27 468 611 342 10;
#X obj -47 145 banggen;
#X obj -47 171 bng 15 250 50 0 empty empty empty 17 7 0 10 -262144
-1 -1;
#X obj -5 171 bng 15 250 50 0 empty empty empty 17 7 0 10 -262144 -1
-1;
#X obj 43 171 bng 15 250 50 0 empty empty empty 17 7 0 10 -262144 -1
-1;
#X obj 103 171 bng 15 250 50 0 empty empty empty 17 7 0 10 -262144
-1 -1;
#X floatatom -47 116 5 0 0 0 - - -;
#X floatatom 20 116 5 0 0 0 - - -;
#X floatatom 93 116 5 0 0 0 - - -;
#X obj -47 -28 tgl 15 0 empty empty empty 17 7 0 10 -262144 -1 -1 1
1;
#X obj -47 201 cup;
#X floatatom -44 220 5 0 0 0 - - -;
#X obj -5 201 cup;
#X floatatom -2 220 5 0 0 0 - - -;
#X obj 43 202 cup;
#X floatatom 46 221 5 0 0 0 - - -;
#X obj 103 201 cup;
#X floatatom 106 220 5 0 0 0 - - -;
#N canvas 704 374 450 300 kick 0;
#X obj 71 105 line~;
#X obj 71 134 osc~;
#X msg 115 107 0.5;
#X obj 71 168 *~;
#X obj 162 106 line~;
#X msg 71 83 220 \, 50 20;
#X msg 162 84 1 \, 0 50;
#X obj 71 48 bng 15 250 50 0 empty empty empty 17 7 0 10 -262144 -1
-1;
#X obj 71 212 *~ 0;
#X obj 118 177 knob 32 32 0 1 0 0 empty empty empty 0 -8 0 8 -262144
-1 -1 1860 1;
#X obj 71 24 inlet;
#X obj 71 239 outlet~;
#X obj 189 146 loadbang;
#X msg 189 168 0.6;
#X connect 0 0 1 0;
#X connect 1 0 3 0;
#X connect 2 0 1 1;
#X connect 3 0 8 0;
#X connect 4 0 3 1;
#X connect 5 0 0 0;
#X connect 6 0 4 0;
#X connect 7 0 5 0;
#X connect 7 0 6 0;
#X connect 7 0 2 0;
#X connect 8 0 11 0;
#X connect 9 0 8 1;
#X connect 10 0 7 0;
#X connect 12 0 13 0;
#X connect 13 0 9 0;
#X restore -5 239 pd kick;
#N canvas 601 578 450 300 out 1;
#X obj 53 62 inlet~;
#X obj 53 112 dac~ 1 2;
#X obj 53 83 *~ 0.6;
#X connect 0 0 2 0;
#X connect 2 0 1 0;
#X connect 2 0 1 1;
#X restore -47 279 pd out;
#N canvas 704 374 450 300 shaker 0;
#X obj 71 118 *~;
#X obj 121 48 bng 15 250 50 0 empty empty empty 17 7 0 10 -262144 -1
-1;
#X obj 71 212 *~ 0;
#X obj 118 177 knob 32 32 0 1 0 0 empty empty empty 0 -8 0 8 -262144
-1 -1 1860 1;
#X obj 121 24 inlet;
#X obj 71 239 outlet~;
#X obj 71 89 noise~;
#X obj 71 154 hip~ 2000;
#X obj 121 101 vline~;
#X msg 121 79 1 40 \, 0.7 100 100 \, 0 100 50;
#X obj 189 146 loadbang;
#X msg 189 168 0.6;
#X connect 0 0 7 0;
#X connect 1 0 9 0;
#X connect 2 0 5 0;
#X connect 3 0 2 1;
#X connect 4 0 1 0;
#X connect 6 0 0 0;
#X connect 7 0 2 0;
#X connect 8 0 0 1;
#X connect 9 0 8 0;
#X connect 10 0 11 0;
#X connect 11 0 3 0;
#X restore 43 239 pd shaker;
#N canvas 704 374 450 300 tom 0;
#X obj 71 134 osc~;
#X msg 155 107 0.5;
#X obj 71 168 *~;
#X obj 317 116 line~;
#X obj 71 48 bng 15 250 50 0 empty empty empty 17 7 0 10 -262144 -1
-1;
#X obj 71 212 *~ 0;
#X obj 118 177 knob 32 32 0 1 0 0 empty empty empty 0 -8 0 8 -262144
-1 -1 1860 1;
#X obj 71 24 inlet;
#X obj 71 239 outlet~;
#X obj 71 105 vline~;
#X msg 342 73 1 \, 0 260;
#X msg 71 83 250 \, 200 100;
#X obj 189 146 loadbang;
#X msg 189 168 0.6;
#X connect 0 0 2 0;
#X connect 1 0 0 1;
#X connect 2 0 5 0;
#X connect 3 0 2 1;
#X connect 4 0 11 0;
#X connect 4 0 10 0;
#X connect 4 0 1 0;
#X connect 5 0 8 0;
#X connect 6 0 5 1;
#X connect 7 0 4 0;
#X connect 9 0 0 0;
#X connect 10 0 3 0;
#X connect 11 0 9 0;
#X connect 12 0 13 0;
#X connect 13 0 6 0;
#X restore -47 238 pd tom;
#X msg 134 184 0;
#X obj 20 97 random 170;
#X obj 93 97 random 170;
#X obj -47 97 random 170;
#X obj -47 11 cup;
#X obj -47 30 % 3;
#X floatatom -47 50 5 0 0 0 - - -;
#X obj -47 72 select 0 1 2;
#N canvas 970 475 450 300 snare 0;
#X obj 71 118 *~;
#X obj 121 101 line~;
#X obj 121 48 bng 15 250 50 0 empty empty empty 17 7 0 10 -262144 -1
-1;
#X obj 71 212 *~ 0;
#X obj 118 177 knob 32 32 0 1 0 0 empty empty empty 0 -8 0 8 -262144
-1 -1 1860 1;
#X obj 121 24 inlet;
#X obj 71 239 outlet~;
#X obj 71 89 noise~;
#X obj 71 154 lop~ 400;
#X msg 121 79 1 \, 0 100;
#X obj 199 156 loadbang;
#X msg 199 178 0.6;
#X connect 0 0 8 0;
#X connect 1 0 0 1;
#X connect 2 0 9 0;
#X connect 3 0 6 0;
#X connect 4 0 3 1;
#X connect 5 0 2 0;
#X connect 7 0 0 0;
#X connect 8 0 3 0;
#X connect 9 0 1 0;
#X connect 10 0 11 0;
#X connect 11 0 4 0;
#X restore 103 239 pd snare;
#X text 131 167 reset counters;
#X text 175 21 using three random inputs (whatever range you want)
\, generates bangs by using various complicated expressions.;
#X text 175 73 tips & tricks:;
#X text 185 88 3rd outlet triggers almost every time \, good for hi-hat
etc.;
#X text 205 143;
#X text 185 102 4th outlet triggers about half as often as 3rd;
#X text 185 115 1st and 2nd trigger almost at the same rate \, with
1st being slightly more frequent.;
#X text 349 288 (c) David Estes-Smargiassi 2017;
#X text 175 -3 BangGen v1.0;
#X text -27 -29 On/Off (with DSP);
#X obj -47 -8 metro 240;
#X floatatom 31 -8 5 0 0 0 - - -;
#X text 69 -8 tempo;
#X connect 0 0 1 0;
#X connect 0 1 2 0;
#X connect 0 2 3 0;
#X connect 0 3 4 0;
#X connect 1 0 9 0;
#X connect 1 0 20 0;
#X connect 2 0 11 0;
#X connect 2 0 17 0;
#X connect 3 0 13 0;
#X connect 3 0 19 0;
#X connect 4 0 15 0;
#X connect 4 0 29 0;
#X connect 5 0 0 0;
#X connect 6 0 0 1;
#X connect 7 0 0 2;
#X connect 8 0 40 0;
#X connect 9 0 10 0;
#X connect 11 0 12 0;
#X connect 13 0 14 0;
#X connect 15 0 16 0;
#X connect 17 0 18 0;
#X connect 19 0 18 0;
#X connect 20 0 18 0;
#X connect 21 0 9 0;
#X connect 21 0 11 0;
#X connect 21 0 13 0;
#X connect 21 0 15 0;
#X connect 22 0 6 0;
#X connect 23 0 7 0;
#X connect 24 0 5 0;
#X connect 25 0 26 0;
#X connect 26 0 27 0;
#X connect 27 0 28 0;
#X connect 28 0 24 0;
#X connect 28 1 22 0;
#X connect 28 2 23 0;
#X connect 29 0 18 0;
#X connect 40 0 25 0;
#X connect 41 0 40 1;
