{
	"patcher" : 	{
		"fileversion" : 1,
		"rect" : [ 741.0, 224.0, 461.0, 422.0 ],
		"bglocked" : 0,
		"defrect" : [ 741.0, 224.0, 461.0, 422.0 ],
		"openrect" : [ 0.0, 0.0, 0.0, 0.0 ],
		"openinpresentation" : 0,
		"default_fontsize" : 12.0,
		"default_fontface" : 0,
		"default_fontname" : "Arial",
		"gridonopen" : 0,
		"gridsize" : [ 15.0, 15.0 ],
		"gridsnaponopen" : 0,
		"toolbarvisible" : 1,
		"boxanimatetime" : 200,
		"imprint" : 0,
		"enablehscroll" : 1,
		"enablevscroll" : 1,
		"devicewidth" : 0.0,
		"boxes" : [ 			{
				"box" : 				{
					"maxclass" : "comment",
					"text" : "sync",
					"fontsize" : 12.0,
					"numinlets" : 1,
					"numoutlets" : 0,
					"fontname" : "Arial",
					"patching_rect" : [ 270.0, 390.0, 35.0, 20.0 ],
					"id" : "obj-23"
				}

			}
, 			{
				"box" : 				{
					"maxclass" : "comment",
					"text" : "position",
					"fontsize" : 12.0,
					"numinlets" : 1,
					"numoutlets" : 0,
					"fontname" : "Arial",
					"patching_rect" : [ 255.0, 90.0, 52.0, 20.0 ],
					"id" : "obj-21"
				}

			}
, 			{
				"box" : 				{
					"maxclass" : "comment",
					"text" : "speed",
					"fontsize" : 12.0,
					"numinlets" : 1,
					"numoutlets" : 0,
					"fontname" : "Arial",
					"patching_rect" : [ 195.0, 60.0, 43.0, 20.0 ],
					"id" : "obj-19"
				}

			}
, 			{
				"box" : 				{
					"maxclass" : "comment",
					"text" : "sample trigger",
					"fontsize" : 12.0,
					"numinlets" : 1,
					"numoutlets" : 0,
					"fontname" : "Arial",
					"patching_rect" : [ 90.0, 30.0, 87.0, 20.0 ],
					"id" : "obj-17"
				}

			}
, 			{
				"box" : 				{
					"maxclass" : "newobj",
					"text" : "sig~ 0.",
					"fontsize" : 12.0,
					"numinlets" : 1,
					"numoutlets" : 1,
					"fontname" : "Arial",
					"outlettype" : [ "signal" ],
					"patching_rect" : [ 315.0, 135.0, 46.0, 20.0 ],
					"id" : "obj-15"
				}

			}
, 			{
				"box" : 				{
					"maxclass" : "newobj",
					"text" : "out 1",
					"fontsize" : 12.0,
					"numinlets" : 1,
					"numoutlets" : 0,
					"fontname" : "Arial",
					"patching_rect" : [ 225.0, 390.0, 38.0, 20.0 ],
					"id" : "obj-14",
					"saved_object_attributes" : 					{

					}

				}

			}
, 			{
				"box" : 				{
					"maxclass" : "number~",
					"fontsize" : 12.0,
					"mode" : 2,
					"numinlets" : 2,
					"numoutlets" : 2,
					"fontname" : "Arial",
					"sig" : 0.0,
					"outlettype" : [ "signal", "float" ],
					"patching_rect" : [ 210.0, 315.0, 57.0, 20.0 ],
					"id" : "obj-13"
				}

			}
, 			{
				"box" : 				{
					"maxclass" : "newobj",
					"text" : "sig~ 0.",
					"fontsize" : 12.0,
					"numinlets" : 1,
					"numoutlets" : 1,
					"fontname" : "Arial",
					"outlettype" : [ "signal" ],
					"patching_rect" : [ 240.0, 135.0, 46.0, 20.0 ],
					"id" : "obj-12"
				}

			}
, 			{
				"box" : 				{
					"maxclass" : "newobj",
					"text" : "in 1",
					"fontsize" : 12.0,
					"numinlets" : 1,
					"numoutlets" : 1,
					"fontname" : "Arial",
					"outlettype" : [ "" ],
					"patching_rect" : [ 180.0, 30.0, 28.0, 20.0 ],
					"id" : "obj-1",
					"saved_object_attributes" : 					{

					}

				}

			}
, 			{
				"box" : 				{
					"maxclass" : "newobj",
					"text" : "frameaccum~",
					"fontsize" : 12.0,
					"numinlets" : 1,
					"numoutlets" : 1,
					"fontname" : "Arial",
					"outlettype" : [ "signal" ],
					"patching_rect" : [ 78.0, 310.0, 85.0, 20.0 ],
					"id" : "obj-2"
				}

			}
, 			{
				"box" : 				{
					"maxclass" : "newobj",
					"text" : "phasewrap~",
					"fontsize" : 12.0,
					"numinlets" : 1,
					"numoutlets" : 1,
					"fontname" : "Arial",
					"outlettype" : [ "signal" ],
					"patching_rect" : [ 90.0, 195.0, 78.0, 20.0 ],
					"id" : "obj-3"
				}

			}
, 			{
				"box" : 				{
					"maxclass" : "newobj",
					"text" : "framedelta~",
					"fontsize" : 12.0,
					"numinlets" : 1,
					"numoutlets" : 1,
					"fontname" : "Arial",
					"outlettype" : [ "signal" ],
					"patching_rect" : [ 90.0, 165.0, 77.0, 20.0 ],
					"id" : "obj-4"
				}

			}
, 			{
				"box" : 				{
					"maxclass" : "newobj",
					"text" : "in 3",
					"fontsize" : 12.0,
					"numinlets" : 1,
					"numoutlets" : 1,
					"fontname" : "Arial",
					"outlettype" : [ "" ],
					"patching_rect" : [ 315.0, 90.0, 28.0, 20.0 ],
					"id" : "obj-5",
					"saved_object_attributes" : 					{

					}

				}

			}
, 			{
				"box" : 				{
					"maxclass" : "newobj",
					"text" : "in 2",
					"fontsize" : 12.0,
					"numinlets" : 1,
					"numoutlets" : 1,
					"fontname" : "Arial",
					"outlettype" : [ "" ],
					"patching_rect" : [ 240.0, 60.0, 28.0, 20.0 ],
					"id" : "obj-6",
					"saved_object_attributes" : 					{

					}

				}

			}
, 			{
				"box" : 				{
					"maxclass" : "newobj",
					"text" : "scrubber~ 5000",
					"fontsize" : 12.0,
					"numinlets" : 4,
					"numoutlets" : 3,
					"fontname" : "Arial",
					"outlettype" : [ "signal", "signal", "signal" ],
					"patching_rect" : [ 30.0, 270.0, 95.0, 20.0 ],
					"id" : "obj-7"
				}

			}
, 			{
				"box" : 				{
					"maxclass" : "newobj",
					"text" : "fftout~ 1",
					"fontsize" : 12.0,
					"numinlets" : 2,
					"numoutlets" : 0,
					"fontname" : "Arial",
					"patching_rect" : [ 30.0, 390.0, 54.0, 20.0 ],
					"id" : "obj-8"
				}

			}
, 			{
				"box" : 				{
					"maxclass" : "newobj",
					"text" : "poltocar~",
					"fontsize" : 12.0,
					"numinlets" : 2,
					"numoutlets" : 2,
					"fontname" : "Arial",
					"outlettype" : [ "signal", "signal" ],
					"patching_rect" : [ 30.0, 345.0, 62.0, 20.0 ],
					"id" : "obj-9"
				}

			}
, 			{
				"box" : 				{
					"maxclass" : "newobj",
					"text" : "cartopol~",
					"fontsize" : 12.0,
					"numinlets" : 2,
					"numoutlets" : 2,
					"fontname" : "Arial",
					"outlettype" : [ "signal", "signal" ],
					"patching_rect" : [ 30.0, 105.0, 62.0, 20.0 ],
					"id" : "obj-10"
				}

			}
, 			{
				"box" : 				{
					"maxclass" : "newobj",
					"text" : "fftin~ 1",
					"fontsize" : 12.0,
					"numinlets" : 1,
					"numoutlets" : 3,
					"fontname" : "Arial",
					"outlettype" : [ "signal", "signal", "signal" ],
					"patching_rect" : [ 30.0, 30.0, 47.0, 20.0 ],
					"id" : "obj-11"
				}

			}
 ],
		"lines" : [ 			{
				"patchline" : 				{
					"source" : [ "obj-15", 0 ],
					"destination" : [ "obj-7", 3 ],
					"hidden" : 0,
					"midpoints" : [ 324.5, 261.0, 115.5, 261.0 ]
				}

			}
, 			{
				"patchline" : 				{
					"source" : [ "obj-5", 0 ],
					"destination" : [ "obj-15", 0 ],
					"hidden" : 0,
					"midpoints" : [  ]
				}

			}
, 			{
				"patchline" : 				{
					"source" : [ "obj-12", 0 ],
					"destination" : [ "obj-7", 2 ],
					"hidden" : 0,
					"midpoints" : [ 249.5, 247.5, 90.166664, 247.5 ]
				}

			}
, 			{
				"patchline" : 				{
					"source" : [ "obj-6", 0 ],
					"destination" : [ "obj-12", 0 ],
					"hidden" : 0,
					"midpoints" : [  ]
				}

			}
, 			{
				"patchline" : 				{
					"source" : [ "obj-9", 1 ],
					"destination" : [ "obj-8", 1 ],
					"hidden" : 0,
					"midpoints" : [ 82.5, 372.0, 74.5, 372.0 ]
				}

			}
, 			{
				"patchline" : 				{
					"source" : [ "obj-9", 0 ],
					"destination" : [ "obj-8", 0 ],
					"hidden" : 0,
					"midpoints" : [  ]
				}

			}
, 			{
				"patchline" : 				{
					"source" : [ "obj-11", 1 ],
					"destination" : [ "obj-10", 1 ],
					"hidden" : 0,
					"midpoints" : [ 53.5, 94.0, 82.5, 94.0 ]
				}

			}
, 			{
				"patchline" : 				{
					"source" : [ "obj-11", 0 ],
					"destination" : [ "obj-10", 0 ],
					"hidden" : 0,
					"midpoints" : [  ]
				}

			}
, 			{
				"patchline" : 				{
					"source" : [ "obj-2", 0 ],
					"destination" : [ "obj-9", 1 ],
					"hidden" : 0,
					"midpoints" : [ 87.5, 337.0, 82.5, 337.0 ]
				}

			}
, 			{
				"patchline" : 				{
					"source" : [ "obj-10", 1 ],
					"destination" : [ "obj-4", 0 ],
					"hidden" : 0,
					"midpoints" : [ 82.5, 138.0, 99.5, 138.0 ]
				}

			}
, 			{
				"patchline" : 				{
					"source" : [ "obj-4", 0 ],
					"destination" : [ "obj-3", 0 ],
					"hidden" : 0,
					"midpoints" : [  ]
				}

			}
, 			{
				"patchline" : 				{
					"source" : [ "obj-13", 1 ],
					"destination" : [ "obj-14", 0 ],
					"hidden" : 0,
					"midpoints" : [ 257.5, 347.0, 234.5, 347.0 ]
				}

			}
, 			{
				"patchline" : 				{
					"source" : [ "obj-1", 0 ],
					"destination" : [ "obj-7", 0 ],
					"hidden" : 0,
					"midpoints" : [ 189.5, 145.0, 39.5, 145.0 ]
				}

			}
, 			{
				"patchline" : 				{
					"source" : [ "obj-10", 0 ],
					"destination" : [ "obj-7", 0 ],
					"hidden" : 0,
					"midpoints" : [  ]
				}

			}
, 			{
				"patchline" : 				{
					"source" : [ "obj-7", 0 ],
					"destination" : [ "obj-9", 0 ],
					"hidden" : 0,
					"midpoints" : [  ]
				}

			}
, 			{
				"patchline" : 				{
					"source" : [ "obj-3", 0 ],
					"destination" : [ "obj-7", 1 ],
					"hidden" : 0,
					"midpoints" : [ 99.5, 234.0, 64.833336, 234.0 ]
				}

			}
, 			{
				"patchline" : 				{
					"source" : [ "obj-7", 1 ],
					"destination" : [ "obj-2", 0 ],
					"hidden" : 0,
					"midpoints" : [ 77.5, 300.0, 87.5, 300.0 ]
				}

			}
, 			{
				"patchline" : 				{
					"source" : [ "obj-7", 2 ],
					"destination" : [ "obj-13", 0 ],
					"hidden" : 0,
					"midpoints" : [ 115.5, 303.5, 219.5, 303.5 ]
				}

			}
 ]
	}

}
