{
	"patcher" : 	{
		"fileversion" : 1,
		"rect" : [ 640.0, 359.0, 640.0, 480.0 ],
		"bglocked" : 0,
		"defrect" : [ 640.0, 359.0, 640.0, 480.0 ],
		"openrect" : [ 0.0, 0.0, 0.0, 0.0 ],
		"openinpresentation" : 0,
		"default_fontsize" : 12.0,
		"default_fontface" : 0,
		"default_fontname" : "Arial",
		"gridonopen" : 0,
		"gridsize" : [ 15.0, 15.0 ],
		"gridsnaponopen" : 0,
		"toolbarvisible" : 1,
		"boxanimatetime" : 200,
		"imprint" : 0,
		"enablehscroll" : 1,
		"enablevscroll" : 1,
		"devicewidth" : 0.0,
		"boxes" : [ 			{
				"box" : 				{
					"maxclass" : "flonum",
					"fontname" : "Arial",
					"numinlets" : 1,
					"patching_rect" : [ 465.0, 375.0, 50.0, 20.0 ],
					"numoutlets" : 2,
					"id" : "obj-23",
					"fontsize" : 12.0,
					"outlettype" : [ "float", "bang" ]
				}

			}
, 			{
				"box" : 				{
					"maxclass" : "newobj",
					"text" : "loadmess 1",
					"fontname" : "Arial",
					"numinlets" : 1,
					"patching_rect" : [ 465.0, 285.0, 72.0, 20.0 ],
					"numoutlets" : 1,
					"id" : "obj-21",
					"fontsize" : 12.0,
					"outlettype" : [ "" ]
				}

			}
, 			{
				"box" : 				{
					"maxclass" : "newobj",
					"text" : "metro 250",
					"fontname" : "Arial",
					"numinlets" : 2,
					"patching_rect" : [ 465.0, 315.0, 65.0, 20.0 ],
					"numoutlets" : 1,
					"id" : "obj-20",
					"fontsize" : 12.0,
					"outlettype" : [ "bang" ]
				}

			}
, 			{
				"box" : 				{
					"maxclass" : "newobj",
					"text" : "adstatus cpu",
					"fontname" : "Arial",
					"numinlets" : 2,
					"patching_rect" : [ 465.0, 345.0, 79.0, 20.0 ],
					"numoutlets" : 2,
					"id" : "obj-19",
					"fontsize" : 12.0,
					"outlettype" : [ "", "int" ]
				}

			}
, 			{
				"box" : 				{
					"maxclass" : "comment",
					"text" : "2. wait for feedback to die down, then see if CPU spikes",
					"fontname" : "Arial",
					"numinlets" : 1,
					"patching_rect" : [ 150.0, 375.0, 307.0, 20.0 ],
					"numoutlets" : 0,
					"id" : "obj-18",
					"fontsize" : 12.0
				}

			}
, 			{
				"box" : 				{
					"maxclass" : "comment",
					"text" : "1. put a noise burst into system",
					"fontname" : "Arial",
					"numinlets" : 1,
					"patching_rect" : [ 330.0, 60.0, 177.0, 20.0 ],
					"numoutlets" : 0,
					"id" : "obj-16",
					"fontsize" : 12.0
				}

			}
, 			{
				"box" : 				{
					"maxclass" : "newobj",
					"text" : "sig~ 50",
					"fontname" : "Arial",
					"numinlets" : 1,
					"patching_rect" : [ 255.0, 165.0, 50.0, 20.0 ],
					"numoutlets" : 1,
					"id" : "obj-14",
					"fontsize" : 12.0,
					"outlettype" : [ "signal" ]
				}

			}
, 			{
				"box" : 				{
					"maxclass" : "newobj",
					"text" : "sig~ 0.7",
					"fontname" : "Arial",
					"numinlets" : 1,
					"patching_rect" : [ 330.0, 165.0, 53.0, 20.0 ],
					"numoutlets" : 1,
					"id" : "obj-13",
					"fontsize" : 12.0,
					"outlettype" : [ "signal" ]
				}

			}
, 			{
				"box" : 				{
					"maxclass" : "meter~",
					"numinlets" : 1,
					"patching_rect" : [ 180.0, 300.0, 80.0, 13.0 ],
					"numoutlets" : 1,
					"id" : "obj-10",
					"outlettype" : [ "float" ]
				}

			}
, 			{
				"box" : 				{
					"maxclass" : "ezdac~",
					"numinlets" : 2,
					"patching_rect" : [ 345.0, 300.0, 45.0, 45.0 ],
					"numoutlets" : 0,
					"id" : "obj-8"
				}

			}
, 			{
				"box" : 				{
					"maxclass" : "newobj",
					"text" : "*~ 0.1",
					"fontname" : "Arial",
					"numinlets" : 2,
					"patching_rect" : [ 180.0, 255.0, 42.0, 20.0 ],
					"numoutlets" : 1,
					"id" : "obj-7",
					"fontsize" : 12.0,
					"outlettype" : [ "signal" ]
				}

			}
, 			{
				"box" : 				{
					"maxclass" : "newobj",
					"text" : "*~",
					"fontname" : "Arial",
					"numinlets" : 2,
					"patching_rect" : [ 180.0, 150.0, 32.5, 20.0 ],
					"numoutlets" : 1,
					"id" : "obj-6",
					"fontsize" : 12.0,
					"outlettype" : [ "signal" ]
				}

			}
, 			{
				"box" : 				{
					"maxclass" : "message",
					"text" : "1 0 0. 250",
					"fontname" : "Arial",
					"numinlets" : 2,
					"patching_rect" : [ 255.0, 60.0, 64.0, 18.0 ],
					"numoutlets" : 1,
					"id" : "obj-5",
					"fontsize" : 12.0,
					"outlettype" : [ "" ]
				}

			}
, 			{
				"box" : 				{
					"maxclass" : "newobj",
					"text" : "line~",
					"fontname" : "Arial",
					"numinlets" : 2,
					"patching_rect" : [ 255.0, 105.0, 36.0, 20.0 ],
					"numoutlets" : 2,
					"id" : "obj-3",
					"fontsize" : 12.0,
					"outlettype" : [ "signal", "bang" ]
				}

			}
, 			{
				"box" : 				{
					"maxclass" : "newobj",
					"text" : "noise~",
					"fontname" : "Arial",
					"numinlets" : 1,
					"patching_rect" : [ 180.0, 105.0, 46.0, 20.0 ],
					"numoutlets" : 1,
					"id" : "obj-2",
					"fontsize" : 12.0,
					"outlettype" : [ "signal" ]
				}

			}
, 			{
				"box" : 				{
					"maxclass" : "newobj",
					"text" : "vpdelay~ 500 500 0.95",
					"fontname" : "Arial",
					"numinlets" : 3,
					"patching_rect" : [ 180.0, 210.0, 132.0, 20.0 ],
					"numoutlets" : 1,
					"id" : "obj-1",
					"fontsize" : 12.0,
					"outlettype" : [ "signal" ]
				}

			}
 ],
		"lines" : [ 			{
				"patchline" : 				{
					"source" : [ "obj-19", 0 ],
					"destination" : [ "obj-23", 0 ],
					"hidden" : 0,
					"midpoints" : [  ]
				}

			}
, 			{
				"patchline" : 				{
					"source" : [ "obj-21", 0 ],
					"destination" : [ "obj-20", 0 ],
					"hidden" : 0,
					"midpoints" : [  ]
				}

			}
, 			{
				"patchline" : 				{
					"source" : [ "obj-20", 0 ],
					"destination" : [ "obj-19", 0 ],
					"hidden" : 0,
					"midpoints" : [  ]
				}

			}
, 			{
				"patchline" : 				{
					"source" : [ "obj-7", 0 ],
					"destination" : [ "obj-10", 0 ],
					"hidden" : 0,
					"midpoints" : [ 189.5, 287.0, 189.5, 287.0 ]
				}

			}
, 			{
				"patchline" : 				{
					"source" : [ "obj-3", 0 ],
					"destination" : [ "obj-6", 1 ],
					"hidden" : 0,
					"midpoints" : [ 264.5, 137.0, 203.0, 137.0 ]
				}

			}
, 			{
				"patchline" : 				{
					"source" : [ "obj-2", 0 ],
					"destination" : [ "obj-6", 0 ],
					"hidden" : 0,
					"midpoints" : [  ]
				}

			}
, 			{
				"patchline" : 				{
					"source" : [ "obj-5", 0 ],
					"destination" : [ "obj-3", 0 ],
					"hidden" : 0,
					"midpoints" : [  ]
				}

			}
, 			{
				"patchline" : 				{
					"source" : [ "obj-6", 0 ],
					"destination" : [ "obj-1", 0 ],
					"hidden" : 0,
					"midpoints" : [  ]
				}

			}
, 			{
				"patchline" : 				{
					"source" : [ "obj-1", 0 ],
					"destination" : [ "obj-7", 0 ],
					"hidden" : 0,
					"midpoints" : [  ]
				}

			}
, 			{
				"patchline" : 				{
					"source" : [ "obj-14", 0 ],
					"destination" : [ "obj-1", 1 ],
					"hidden" : 0,
					"midpoints" : [ 264.5, 197.0, 246.0, 197.0 ]
				}

			}
, 			{
				"patchline" : 				{
					"source" : [ "obj-7", 0 ],
					"destination" : [ "obj-8", 0 ],
					"hidden" : 0,
					"midpoints" : [ 189.5, 291.0, 354.5, 291.0 ]
				}

			}
, 			{
				"patchline" : 				{
					"source" : [ "obj-7", 0 ],
					"destination" : [ "obj-8", 1 ],
					"hidden" : 0,
					"midpoints" : [ 189.5, 282.0, 380.5, 282.0 ]
				}

			}
, 			{
				"patchline" : 				{
					"source" : [ "obj-13", 0 ],
					"destination" : [ "obj-1", 2 ],
					"hidden" : 0,
					"midpoints" : [ 339.5, 197.0, 302.5, 197.0 ]
				}

			}
 ]
	}

}
